<?xml version="1.0" ?><!DOCTYPE svg  PUBLIC '-//W3C//DTD SVG 1.1//EN'  'http://www.w3.org/Graphics/SVG/1.1/DTD/svg11.dtd'><svg enable-background="new 0 0 32 32" height="32px" id="_x3C_Layer_x3E_" version="1.1" viewBox="0 0 32 32" width="32px" xml:space="preserve" xmlns="http://www.w3.org/2000/svg" xmlns:xlink="http://www.w3.org/1999/xlink"><g id="arrows_x2C__Expand_x2C__fullscreen_x2C__maximize"><g id="Arrows_x2C__choose_x2C__opportunity_x2C__person_x2C__ways"><path d="M17.621,17c-0.128,0-0.256-0.049-0.354-0.146c-0.195-0.195-0.195-0.512,0-0.707l9.697-9.696    c0.195-0.195,0.512-0.195,0.707,0l1.234,1.234l0.978-5.569l-5.569,0.978l1.234,1.234c0.195,0.195,0.195,0.512,0,0.707    l-7.694,7.695c-0.195,0.195-0.512,0.195-0.707,0s-0.195-0.512,0-0.707l7.341-7.342l-1.561-1.561    c-0.132-0.132-0.179-0.326-0.124-0.504c0.056-0.178,0.207-0.31,0.391-0.342l7.218-1.268c0.161-0.027,0.324,0.023,0.44,0.139    c0.115,0.115,0.167,0.279,0.139,0.44l-1.268,7.218c-0.033,0.184-0.164,0.334-0.342,0.39c-0.178,0.055-0.372,0.008-0.504-0.123    l-1.561-1.561l-9.344,9.343C17.877,16.951,17.749,17,17.621,17z" fill="#263238"/><path d="M30.5,31c-0.029,0-0.058-0.002-0.086-0.007l-7.218-1.268c-0.184-0.033-0.334-0.164-0.39-0.342    c-0.056-0.178-0.009-0.372,0.123-0.504l1.561-1.561l-9.343-9.344c-0.195-0.195-0.195-0.512,0-0.707s0.512-0.195,0.707,0    l9.696,9.697c0.195,0.195,0.195,0.512,0,0.707l-1.234,1.234l5.569,0.978l-0.978-5.569l-1.234,1.234    c-0.195,0.195-0.512,0.195-0.707,0L19.3,17.886c-0.195-0.195-0.195-0.512,0-0.707s0.512-0.195,0.707,0l7.312,7.311l1.561-1.561    c0.132-0.132,0.326-0.179,0.504-0.123c0.178,0.056,0.31,0.207,0.342,0.39l1.268,7.218c0.028,0.161-0.024,0.325-0.139,0.44    C30.759,30.948,30.631,31,30.5,31z" fill="#263238"/><path d="M1.5,31c-0.131,0-0.259-0.052-0.354-0.146c-0.115-0.115-0.167-0.279-0.139-0.44l1.268-7.218    c0.033-0.184,0.164-0.334,0.342-0.39c0.177-0.057,0.371-0.009,0.504,0.123l1.561,1.561l9.344-9.343    c0.195-0.195,0.512-0.195,0.707,0s0.195,0.512,0,0.707L5.035,25.55c-0.195,0.195-0.512,0.195-0.707,0l-1.234-1.234l-0.978,5.569    l5.569-0.978L6.45,27.672c-0.195-0.195-0.195-0.512,0-0.707l7.694-7.695c0.195-0.195,0.512-0.195,0.707,0s0.195,0.512,0,0.707    l-7.341,7.342l1.561,1.561c0.132,0.132,0.179,0.326,0.124,0.504c-0.056,0.178-0.207,0.31-0.391,0.342l-7.218,1.268    C1.558,30.998,1.529,31,1.5,31z" fill="#263238"/><path d="M12.375,14.997c-0.128,0-0.256-0.049-0.354-0.146l-7.34-7.34L3.121,9.071    C2.989,9.203,2.795,9.249,2.617,9.195c-0.178-0.056-0.31-0.207-0.342-0.391L1.007,1.586c-0.028-0.161,0.024-0.325,0.139-0.44    c0.116-0.115,0.28-0.166,0.44-0.139l7.218,1.268c0.184,0.033,0.334,0.164,0.39,0.342C9.25,2.795,9.203,2.989,9.071,3.121    L7.511,4.682l9.343,9.344c0.195,0.195,0.195,0.512,0,0.707s-0.512,0.195-0.707,0L6.45,5.035c-0.195-0.195-0.195-0.512,0-0.707    l1.234-1.234L2.116,2.116l0.978,5.569L4.328,6.45c0.195-0.195,0.512-0.195,0.707,0l7.694,7.693c0.195,0.195,0.195,0.512,0,0.707    C12.631,14.948,12.503,14.997,12.375,14.997z" fill="#263238"/></g></g></svg>