<?xml version="1.0" standalone="no"?>
<!DOCTYPE svg PUBLIC "-//W3C//DTD SVG 20010904//EN"
  "http://www.w3.org/TR/2001/REC-SVG-20010904/DTD/svg10.dtd">
<svg height="165.000000pt" preserveAspectRatio="xMidYMid meet"
     version="1.0" viewBox="0 0 258.000000 165.000000" width="258.000000pt"
     xmlns="http://www.w3.org/2000/svg">

  <g fill="#000000"
     stroke="none" transform="translate(0.000000,165.000000) scale(0.100000,-0.100000)">
    <path d="M1208 1050 c-111 -59 -110 -233 3 -290 114 -59 243 19 243 145 0 126
-132 205 -246 145z m138 -26 c69 -33 94 -124 54 -189 -21 -35 -73 -65 -110
-65 -37 0 -89 30 -110 65 -40 65 -15 155 53 189 41 20 70 20 113 0z"/>
    <path d="M1175 650 c-66 -26 -114 -65 -99 -80 8 -8 23 -4 59 19 26 17 72 36
101 42 69 15 142 1 209 -42 36 -23 51 -27 59 -19 8 9 3 18 -19 36 -77 62 -213
81 -310 44z"/>
  </g>
</svg>
