<?xml version="1.0" standalone="no"?>
<!DOCTYPE svg PUBLIC "-//W3C//DTD SVG 20010904//EN"
 "http://www.w3.org/TR/2001/REC-SVG-20010904/DTD/svg10.dtd">
<svg version="1.0" xmlns="http://www.w3.org/2000/svg"
 width="1089.000000pt" height="523.000000pt" viewBox="0 0 1089.000000 523.000000"
 preserveAspectRatio="xMidYMid meet">

<g transform="translate(0.000000,523.000000) scale(0.100000,-0.100000)"
fill="#000000" stroke="none">
<path d="M4752 3307 l-42 -43 100 -99 c55 -55 100 -103 100 -107 0 -5 -18 -8
-41 -8 -33 0 -47 -6 -75 -34 l-34 -34 0 -362 0 -362 34 -34 34 -34 423 0 424
0 30 24 30 25 175 -175 176 -174 42 43 42 42 -688 688 -687 687 -43 -43z m582
-666 c217 -217 297 -303 294 -317 -3 -18 -18 -19 -378 -19 l-375 0 -3 305 c-1
168 0 310 3 317 3 9 29 13 82 13 l78 0 299 -299z"/>
<path d="M5320 2995 l54 -54 125 -3 126 -3 3 -126 3 -125 59 -59 60 -59 0 72
0 72 120 60 c66 33 124 60 130 60 6 0 10 -85 10 -243 l0 -243 55 -54 55 -54 0
392 c0 216 -2 392 -5 392 -3 0 -82 -38 -175 -85 -93 -47 -174 -85 -180 -85 -5
0 -10 23 -10 50 0 28 -6 66 -14 85 -25 59 -50 65 -273 65 l-197 0 54 -55z"/>
</g>
</svg>
